# xmcd
#
# Track frame offsets:
#	150
#	13692
#	26042
#	40920
#	55447
#	70752
#	87692
#	104580
#	118855
#	132595
#	146502
#	162085
#
# Disc length: 2344 seconds
#
# Revision: 2
# Processed by: cddbd v1.4PL0 Copyright (c) Steve Scherf et al.
# Submitted via: MusicManager 7.0.3.0 
#
DISCID=b109260c
DTITLE=Hyatt, Walter  - Music Town
DYEAR=1993
DGENRE=
TTITLE0=Get The Hell Outta Dodge
TTITLE1=Must I Fall
TTITLE2=When You're Down To Your Last Quarter
TTITLE3=Are We There Yet Momma
TTITLE4=The Evening Train
TTITLE5=In Black And White
TTITLE6=Teach Me About Love
TTITLE7=I'm Calling
TTITLE8=Out Where The Blue Begins
TTITLE9=All The Time In The World
TTITLE10=Here Today
TTITLE11=Last Call
EXTD=
EXTT0=
EXTT1=
EXTT2=
EXTT3=
EXTT4=
EXTT5=
EXTT6=
EXTT7=
EXTT8=
EXTT9=
EXTT10=
EXTT11=
PLAYORDER=
